<svg version="1.1" xmlns="http://www.w3.org/2000/svg" viewBox="0 0 989.8203125 615.82421875" width="1979.640625" height="1231.6484375">
  <!-- svg-source:excalidraw -->
  
  <defs>
    <style>
      @font-face {
        font-family: "Virgil";
        src: url("https://excalidraw.com/Virgil.woff2");
      }
      @font-face {
        font-family: "Cascadia";
        src: url("https://excalidraw.com/Cascadia.woff2");
      }
    </style>
  </defs>
  <g stroke-linecap="round" transform="translate(38.3828125 59.52734375) rotate(0 54.607421875 30.123046875)"><path d="M1.67 -1.13 C35.32 -2.07, 67.16 -2.83, 107.39 0.63 M0.43 0.55 C43.65 -0.97, 86.64 -1.3, 109.59 0.7 M110.43 -1.71 C109.59 25.07, 111.56 47.65, 108.84 58.36 M108.61 0.2 C109.65 17.4, 108.74 37.05, 108.37 59.76 M108.22 61.42 C85.36 61.15, 60.99 59.7, 0.62 62.07 M109.08 60.68 C70.34 60.5, 30.6 59.89, 0.85 60.01 M0.5 61.2 C0.32 36.83, 1.23 18.33, -1.14 0.99 M-0.15 60.11 C0.36 45.65, -1 32.25, -0.24 0.52" stroke="#000000" stroke-width="1" fill="none"></path></g><g transform="translate(78.0234375 78.5390625) rotate(0 19.5 10)"><text x="0" y="16" font-family="Cascadia, Segoe UI Emoji" font-size="16px" fill="#000000" text-anchor="start" style="white-space: pre;" direction="ltr">Ruby</text></g><g stroke-linecap="round" transform="translate(99.666015625 440.080078125) rotate(0 89.693359375 33.9296875)"><path d="M1.8 -0.98 C59.59 1.34, 120.45 1.6, 177.46 -1.78 M0.86 0.88 C47.09 -0.62, 92.46 -1.85, 179.05 -0.23 M180.71 0.88 C179.02 26.17, 177.46 50.64, 177.96 68.11 M180.03 -0.2 C179.73 16.03, 179.31 31.16, 179.46 67.23 M179.73 67.5 C119.9 65.95, 59.6 67.99, 0.26 66.22 M179.9 67.24 C136.69 69.86, 94.7 69.69, 0.75 68.68 M1.96 67.33 C-0.54 46.4, 0.07 27.93, -0.41 1.4 M-0.08 68.05 C-0.07 50.83, 0.98 32.57, -0.12 -0.33" stroke="#000000" stroke-width="1" fill="none"></path></g><g transform="translate(156.447265625 461.345703125) rotate(0 28.5 10)"><text x="0" y="16" font-family="Cascadia, Segoe UI Emoji" font-size="16px" fill="#000000" text-anchor="start" style="white-space: pre;" direction="ltr">Elixir</text></g><g stroke-linecap="round"><g transform="translate(97.68657519334272 121.18579951614473) rotate(0 34.088572684254245 152.81545894104067)"><path d="M0.28 -0.13 C11.32 51.14, 55.52 255.68, 66.92 306.88 M-1.03 -1.25 C10.32 49.76, 57.62 254.12, 69.2 305.19" stroke="#000000" stroke-width="1" fill="none"></path></g><g transform="translate(97.68657519334272 121.18579951614473) rotate(0 34.088572684254245 152.81545894104067)"><path d="M52.68 278.64 C60 290.67, 66.15 298.13, 67.57 306.11 M52.54 280.97 C58.65 287.82, 63.23 295.22, 69.44 304.73" stroke="#000000" stroke-width="1" fill="none"></path></g><g transform="translate(97.68657519334272 121.18579951614473) rotate(0 34.088572684254245 152.81545894104067)"><path d="M72.68 274.05 C72.77 287.78, 71.7 296.89, 67.57 306.11 M72.54 276.38 C72.71 284.49, 71.3 293.26, 69.44 304.73" stroke="#000000" stroke-width="1" fill="none"></path></g></g><g transform="translate(2.28125 267.08203125) rotate(76.28183139975403 99 10)"><text x="0" y="16" font-family="Cascadia, Segoe UI Emoji" font-size="16px" fill="#000000" text-anchor="start" style="white-space: pre;" direction="ltr">sentry-trace: t1-s1-1</text></g><g stroke-linecap="round" transform="translate(289.125 115.5078125) rotate(0 89.322265625 34.78515625)"><path d="M1.57 1.09 C58.98 1.63, 119.86 1.92, 177.56 -0.01 M-0.62 -0.14 C40.87 -1.83, 82.66 -0.95, 178.37 0.19 M180.29 -0.13 C179.55 24.19, 179.38 50.81, 178.19 67.69 M179.49 -0.98 C178.32 16.29, 178.69 32.17, 178.39 69.86 M178.6 70.8 C109.98 69.57, 38.3 69.67, 0.84 69.62 M179.32 69.07 C134.16 69.03, 90.76 69.4, -0.72 69.64 M0.85 69.81 C1.11 46.7, -0.45 23.83, 1.04 0.48 M-0.23 68.75 C-0.37 53.14, -0.6 34.69, 0.11 -0.99" stroke="#000000" stroke-width="1" fill="none"></path></g><g transform="translate(346.3046875 139.703125) rotate(0 33.5 10)"><text x="0" y="16" font-family="Cascadia, Segoe UI Emoji" font-size="16px" fill="#000000" text-anchor="start" style="white-space: pre;" direction="ltr">Node.js</text></g><g stroke-linecap="round"><g transform="translate(221.44077779227405 427.0548658858985) rotate(0 63.267064313633 -116.83475283272566)"><path d="M-1.18 -0.49 C20.28 -39.52, 106.21 -194.35, 127.71 -233.18 M0.4 -1.8 C21.85 -40.11, 105.92 -193.25, 127.1 -231.66" stroke="#000000" stroke-width="1" fill="none"></path></g><g transform="translate(221.44077779227405 427.0548658858985) rotate(0 63.267064313633 -116.83475283272566)"><path d="M121.68 -200.97 C123.15 -206.99, 123.7 -213.96, 128.88 -231.81 M122.93 -202.43 C123.45 -212.66, 126.11 -222.53, 126.54 -230.68" stroke="#000000" stroke-width="1" fill="none"></path></g><g transform="translate(221.44077779227405 427.0548658858985) rotate(0 63.267064313633 -116.83475283272566)"><path d="M103.7 -210.86 C109.07 -214.61, 113.43 -219.48, 128.88 -231.81 M104.95 -212.32 C111.69 -219.24, 120.56 -225.69, 126.54 -230.68" stroke="#000000" stroke-width="1" fill="none"></path></g></g><g stroke-linecap="round"><g transform="translate(288.6973659809413 431.0557841333705) rotate(0 95.56427973414412 -72.331604181322)"><path d="M0.08 0.33 C32.16 -23.69, 160.25 -120.83, 192.47 -145 M-1.34 -0.54 C30.55 -24.29, 158.93 -119.77, 191.3 -143.56" stroke="#000000" stroke-width="1" fill="none"></path></g><g transform="translate(288.6973659809413 431.0557841333705) rotate(0 95.56427973414412 -72.331604181322)"><path d="M175.3 -119.23 C179.57 -125.19, 185.08 -132.65, 191.24 -144.24 M174.18 -118.83 C178.81 -126.15, 183.52 -133.85, 191.84 -144.36" stroke="#000000" stroke-width="1" fill="none"></path></g><g transform="translate(288.6973659809413 431.0557841333705) rotate(0 95.56427973414412 -72.331604181322)"><path d="M163.09 -135.73 C170.9 -136.75, 180.05 -139.29, 191.24 -144.24 M161.98 -135.33 C170.28 -137.84, 178.57 -140.68, 191.84 -144.36" stroke="#000000" stroke-width="1" fill="none"></path></g></g><g stroke-linecap="round" transform="translate(488.14453125 223.42578125) rotate(0 69.2578125 37.291015625)"><path d="M-0.12 0.07 C55.51 1.63, 110.98 2.49, 140.47 0.16 M-0.57 -0.34 C41.03 0.91, 80.71 0.04, 138.48 -0.18 M137.32 0.57 C138.55 16.54, 137.4 38.58, 138.62 74.97 M137.81 0.18 C139.85 24.52, 138.78 48.56, 138.65 73.7 M139.77 75.28 C86.82 73.45, 40.32 72.97, -0.6 74.23 M138.87 73.64 C98.25 75.39, 58.38 74.96, -0.82 74.72 M1.79 75.51 C1.08 50.82, 1.26 22.83, 1.17 0.09 M0.94 73.79 C0.99 51.68, 0.66 29.21, 0.39 -0.12" stroke="#000000" stroke-width="1" fill="none"></path></g><g transform="translate(542.3671875 246.2265625) rotate(0 10 10)"><text x="0" y="16" font-family="Cascadia, Segoe UI Emoji" font-size="16px" fill="#000000" text-anchor="start" style="white-space: pre;" direction="ltr">Go</text></g><g transform="translate(168.3476562499999 296.56250000000006) rotate(299.2929123954498 99 10)"><text x="0" y="16" font-family="Cascadia, Segoe UI Emoji" font-size="16px" fill="#000000" text-anchor="start" style="white-space: pre;" direction="ltr">sentry-trace: t1-s4-1</text></g><g stroke-linecap="round" transform="translate(758.703125 10) rotate(0 107.234375 39.013671875)"><path d="M1.29 -0.64 C74.75 1.37, 146.49 0.75, 214.02 -0.34 M0.09 0.25 C56.16 -0.77, 114.34 -0.18, 214.55 -0.12 M214.89 -0.26 C214.52 29.17, 213.58 57.08, 213.8 79.07 M214.52 -0.1 C214.7 25.6, 213.49 49.75, 213.61 78.63 M215.76 76.51 C142.19 75.41, 71.8 75.32, -1.42 76.41 M214.6 78.26 C147.1 78.49, 81.84 79.16, 0.12 77.81 M-0.07 79.65 C-2.01 52.51, 1.34 24.28, -1.92 1.65 M0.54 78.85 C-0.49 56.93, 0.31 34.35, -0.45 0.11" stroke="#000000" stroke-width="1" fill="none"></path></g><g stroke-linecap="round" transform="translate(768.87109375 418.3671875) rotate(0 105.474609375 33.505859375)"><path d="M0.18 1.41 C53.66 1.98, 106.05 0.1, 210.02 1 M0.32 0.22 C68.65 0.43, 137.16 -0.34, 211.28 0.68 M210.61 1.73 C212.1 17.15, 211.96 32.51, 212.91 68.99 M210.32 -0.55 C210.06 23.86, 210.26 45.94, 210.38 66.47 M212.55 65.34 C162.55 67.55, 110.76 67.51, -0.4 68.24 M210.75 67.59 C129.62 68.29, 49.71 68.29, 0.6 66.62 M1.93 66.56 C-0.78 46.89, 0.27 24.09, -1.57 0.73 M-0.1 67.63 C0.43 46.81, 0.46 25.46, -0.84 -0.13" stroke="#000000" stroke-width="1" fill="none"></path></g><g transform="translate(822.80078125 32.68359375) rotate(0 28.5 10)"><text x="0" y="16" font-family="Cascadia, Segoe UI Emoji" font-size="16px" fill="#000000" text-anchor="start" style="white-space: pre;" direction="ltr">Sentry</text></g><g transform="translate(817.91015625 439.08984375) rotate(0 66 10)"><text x="0" y="16" font-family="Cascadia, Segoe UI Emoji" font-size="16px" fill="#000000" text-anchor="start" style="white-space: pre;" direction="ltr">OTEL Collector</text></g><g stroke-linecap="round"><g stroke-opacity="0.3" fill-opacity="0.3" transform="translate(159.40843030698602 58.040323637482516) rotate(0 297.16221926454455 -15.750412747636354)"><path d="M0.46 -0.84 C99.31 -5.93, 495.19 -25.85, 593.86 -30.66" stroke="#000000" stroke-width="1.5" fill="none" stroke-dasharray="1.5 7"></path></g><g stroke-opacity="0.3" fill-opacity="0.3" transform="translate(159.40843030698602 58.040323637482516) rotate(0 297.16221926454455 -15.750412747636354)"><path d="M594.35 -29.86 L581.75 -22.5 L581.28 -37.98 L592.59 -31.74" stroke="none" stroke-width="0" fill="#000000" fill-rule="evenodd"></path><path d="M592.81 -29.66 C588.7 -28.75, 585.06 -25.88, 581.85 -24.67 M579.63 -24.19 C581.48 -26.76, 580.38 -30.6, 580.35 -35.68 M581.4 -34.94 C584.65 -33.23, 590.56 -32.87, 595.05 -29.58 M593.86 -30.66 C593.86 -30.66, 593.86 -30.66, 593.86 -30.66" stroke="#000000" stroke-width="1.5" fill="none"></path></g></g><g transform="translate(287.0625 374.05078125) rotate(323.6853839484824 99 10)"><text x="0" y="16" font-family="Cascadia, Segoe UI Emoji" font-size="16px" fill="#000000" text-anchor="start" style="white-space: pre;" direction="ltr">sentry-trace: t1-s5-1</text></g><g stroke-linecap="round"><g stroke-opacity="0.3" fill-opacity="0.3" transform="translate(484.05859375 142.81426316187026) rotate(0 131.51953125 -45.30102875525451)"><path d="M0 0 C81.42 -28.05, 162.85 -56.09, 263.04 -90.6" stroke="#000000" stroke-width="1.5" fill="none" stroke-dasharray="1.5 7"></path></g><g stroke-opacity="0.3" fill-opacity="0.3" transform="translate(484.05859375 142.81426316187026) rotate(0 131.51953125 -45.30102875525451)"><path d="M263.04 -90.6 L252.25 -80.18 L248.12 -92.17 L263.04 -90.6" stroke="none" stroke-width="0" fill="#000000" fill-rule="evenodd"></path><path d="M263.04 -90.6 C259.7 -87.38, 256.36 -84.15, 252.25 -80.18 M252.25 -80.18 C250.8 -84.39, 249.35 -88.6, 248.12 -92.17 M248.12 -92.17 C253.4 -91.61, 258.68 -91.06, 263.04 -90.6 M263.04 -90.6 C263.04 -90.6, 263.04 -90.6, 263.04 -90.6" stroke="#000000" stroke-width="1.5" fill="none"></path></g></g><g stroke-linecap="round"><g stroke-opacity="0.3" fill-opacity="0.3" transform="translate(641.4902594157561 215.63082039526682) rotate(0 56.17869841712195 -64.3118220870316)"><path d="M0 0 C22.68 -25.96, 45.35 -51.92, 112.36 -128.62" stroke="#000000" stroke-width="1.5" fill="none" stroke-dasharray="1.5 7"></path></g><g stroke-opacity="0.3" fill-opacity="0.3" transform="translate(641.4902594157561 215.63082039526682) rotate(0 56.17869841712195 -64.3118220870316)"><path d="M112.36 -128.62 L108.19 -114.21 L98.64 -122.56 L112.36 -128.62" stroke="none" stroke-width="0" fill="#000000" fill-rule="evenodd"></path><path d="M112.36 -128.62 C111.52 -125.72, 110.67 -122.81, 108.19 -114.21 M108.19 -114.21 C105.55 -116.52, 102.9 -118.83, 98.64 -122.56 M98.64 -122.56 C102.16 -124.11, 105.67 -125.67, 112.36 -128.62 M112.36 -128.62 C112.36 -128.62, 112.36 -128.62, 112.36 -128.62" stroke="#000000" stroke-width="1.5" fill="none"></path></g></g><g stroke-linecap="round"><g stroke-opacity="0.3" fill-opacity="0.3" transform="translate(289.1015625 469.27500221665287) rotate(0 235.115234375 -2.3796002327737256)"><path d="M0 0 C128.17 -1.3, 256.34 -2.59, 470.23 -4.76" stroke="#000000" stroke-width="1.5" fill="none" stroke-dasharray="1.5 7"></path></g><g stroke-opacity="0.3" fill-opacity="0.3" transform="translate(289.1015625 469.27500221665287) rotate(0 235.115234375 -2.3796002327737256)"><path d="M470.23 -4.76 L456.7 1.72 L456.57 -10.96 L470.23 -4.76" stroke="none" stroke-width="0" fill="#000000" fill-rule="evenodd"></path><path d="M470.23 -4.76 C466.54 -2.99, 462.85 -1.23, 456.7 1.72 M456.7 1.72 C456.65 -3.35, 456.6 -8.41, 456.57 -10.96 M456.57 -10.96 C460.35 -9.25, 464.12 -7.53, 470.23 -4.76 M470.23 -4.76 C470.23 -4.76, 470.23 -4.76, 470.23 -4.76" stroke="#000000" stroke-width="1.5" fill="none"></path></g></g><g stroke-linecap="round"><g stroke-opacity="0.3" fill-opacity="0.3" transform="translate(860.7557772915229 407.10546875) rotate(0 -2.9784693013552896 -151.77734375)"><path d="M0 0 C-1.35 -68.66, -2.69 -137.32, -5.96 -303.55" stroke="#000000" stroke-width="1.5" fill="none" stroke-dasharray="1.5 7"></path></g><g stroke-opacity="0.3" fill-opacity="0.3" transform="translate(860.7557772915229 407.10546875) rotate(0 -2.9784693013552896 -151.77734375)"><path d="M-5.96 -303.55 L0.65 -290.09 L-12.03 -289.84 L-5.96 -303.55" stroke="none" stroke-width="0" fill="#000000" fill-rule="evenodd"></path><path d="M-5.96 -303.55 C-4.46 -300.51, -2.97 -297.46, 0.65 -290.09 M0.65 -290.09 C-2.74 -290.02, -6.14 -289.95, -12.03 -289.84 M-12.03 -289.84 C-9.87 -294.71, -7.71 -299.59, -5.96 -303.55 M-5.96 -303.55 C-5.96 -303.55, -5.96 -303.55, -5.96 -303.55" stroke="#000000" stroke-width="1.5" fill="none"></path></g></g><g stroke-linecap="round"><g stroke-opacity="0.3" fill-opacity="0.3" transform="translate(10 596.37890625) rotate(0 37.12890625 0.228515625)"><path d="M0 0 C24.83 0.15, 49.66 0.31, 74.26 0.46" stroke="#000000" stroke-width="1.5" fill="none" stroke-dasharray="1.5 7"></path></g><g stroke-opacity="0.3" fill-opacity="0.3" transform="translate(10 596.37890625) rotate(0 37.12890625 0.228515625)"><path d="M74.26 0.46 L60.62 6.71 L60.7 -5.97 L74.26 0.46" stroke="none" stroke-width="0" fill="#000000" fill-rule="evenodd"></path><path d="M74.26 0.46 C69.7 2.55, 65.14 4.64, 60.62 6.71 M60.62 6.71 C60.65 2.5, 60.68 -1.71, 60.7 -5.97 M60.7 -5.97 C65.25 -3.81, 69.79 -1.66, 74.26 0.46 M74.26 0.46 C74.26 0.46, 74.26 0.46, 74.26 0.46" stroke="#000000" stroke-width="1.5" fill="none"></path></g></g><g transform="translate(95.01953125 585.82421875) rotate(0 28.5 10)"><text x="0" y="16" font-family="Cascadia, Segoe UI Emoji" font-size="16px" fill="#000000" text-anchor="start" style="white-space: pre;" direction="ltr">Traces</text></g><g stroke-linecap="round"><g transform="translate(223.98828125 596.4609375) rotate(0 38.658013462089 -1.2455301274760586)"><path d="M0.86 -0.74 C19.53 -1.01, 39.72 -3.33, 76.44 -1.94 M0.62 -0.12 C23.55 -0.15, 45.05 -1.71, 76.7 -2.25" stroke="#000000" stroke-width="1" fill="none"></path></g><g transform="translate(223.98828125 596.4609375) rotate(0 38.658013462089 -1.2455301274760586)"><path d="M49.65 8.01 C55.97 5.69, 63.8 0.95, 77.26 -2.57 M49.41 8.64 C57.97 5.66, 65.19 1.3, 77.52 -2.89" stroke="#000000" stroke-width="1" fill="none"></path></g><g transform="translate(223.98828125 596.4609375) rotate(0 38.658013462089 -1.2455301274760586)"><path d="M49.1 -12.5 C55.56 -9.54, 63.54 -9, 77.26 -2.57 M48.86 -11.88 C57.77 -8.74, 65.15 -6.99, 77.52 -2.89" stroke="#000000" stroke-width="1" fill="none"></path></g></g><g transform="translate(310.703125 583.83203125) rotate(0 57 10)"><text x="0" y="16" font-family="Cascadia, Segoe UI Emoji" font-size="16px" fill="#000000" text-anchor="start" style="white-space: pre;" direction="ltr">HTTP request</text></g></svg>