<svg version="1.1" xmlns="http://www.w3.org/2000/svg" viewBox="0 0 1281.01171875 652.01171875" width="2562.0234375" height="1304.0234375">
  <!-- svg-source:excalidraw -->
  
  <defs>
    <style>
      @font-face {
        font-family: "Virgil";
        src: url("https://excalidraw.com/Virgil.woff2");
      }
      @font-face {
        font-family: "Cascadia";
        src: url("https://excalidraw.com/Cascadia.woff2");
      }
    </style>
  </defs>
  <g stroke-opacity="0.1" fill-opacity="0.1" stroke-linecap="round" transform="translate(85.28515625 95.79296875) rotate(0 272.787109375 115.822265625)"><path d="M-0.71 1.3 L543.93 -1.89 L546.32 232.82 L-1.77 229.72" stroke="none" stroke-width="0" fill="#15aabf"></path><path d="M0.2 -0.02 C206.04 0.09, 411.36 0.4, 546.31 0.79 M0.06 0.26 C160.46 0.14, 321.33 0.17, 545.39 -0.34 M545.16 -1.27 C546.71 63.87, 546.37 126.41, 545.46 230.76 M545.67 0.06 C543.04 82.91, 544.08 168.13, 545.66 231.46 M546.31 231.09 C394.63 231.44, 244.11 230.24, 0.09 232.12 M545.19 231.77 C364.34 232.89, 182.69 233.19, 0.32 231.62 M-0.35 230.08 C-2.23 179.1, -0.96 126.24, -0.18 0.66 M-0.49 230.88 C-1.83 155.63, -2.8 79.49, 0.24 -0.26" stroke="#000000" stroke-width="1" fill="none"></path></g><g stroke-opacity="0.1" fill-opacity="0.1" stroke-linecap="round" transform="translate(10 10) rotate(0 630.505859375 316.005859375)"><path d="M-0.47 1.81 L1260.06 -0.31 L1260.64 631.26 L1.24 630.87" stroke="none" stroke-width="0" fill="#fa5252"></path><path d="M-0.33 -0.39 C405.98 -1.01, 812.77 -0.55, 1261.69 -0.65 M0.09 0.24 C289.46 -0.16, 578.67 -0.26, 1261.22 0.23 M1261.47 -0.44 C1258.78 132.24, 1259.54 265.26, 1260.7 631.8 M1261.16 -0.29 C1258.85 194.23, 1258.49 388.33, 1261.06 632.07 M1260.61 632.57 C906.21 634.79, 550.7 634.77, 0.23 632.39 M1261.29 632.39 C782.55 636.2, 303.61 636.62, -0.35 631.98 M0.1 631.97 C0.02 401.51, 0.2 170.99, 0.02 0.18 M0.2 631.66 C0.88 418.46, 0.49 204.87, -0.02 0.29" stroke="#000000" stroke-width="1" fill="none"></path></g><g transform="translate(152.2890625 138.98828125) rotate(0 80 10)"><text x="0" y="16" font-family="Cascadia, Segoe UI Emoji" font-size="16px" fill="#000000" text-anchor="start" style="white-space: pre;" direction="ltr">GET /api/userinfo</text></g><g stroke-linecap="round" transform="translate(51.92578125 46.48828125) rotate(0 579.994140625 15.236328125)"><path d="M0.58 0.66 C261.39 3.32, 522.84 2.63, 1159.9 0.26 M0.21 -0.35 C248.77 -1.43, 498.27 -1.98, 1160.21 0.3 M1161.01 0.98 C1159.1 9.59, 1161.9 18.27, 1161.74 30.48 M1159.88 -0.91 C1161.06 9.21, 1160.56 16.38, 1159.15 29.58 M1160.04 29.96 C919.78 26.69, 680.59 26.8, -0.12 30.15 M1159.85 30.47 C789.24 29.8, 417.93 29.85, -0.35 30.15 M-1.08 31.47 C0.29 21.86, -0.7 8.25, 0.14 1.6 M-0.83 30.62 C0.62 20.47, -0.29 9.86, -0.07 -0.94" stroke="#000000" stroke-width="1" fill="none"></path></g><g stroke-linecap="round"><g transform="translate(61.5 83.82421875) rotate(0 -0.8903640804217332 149.53414898623117)"><path d="M-0.49 0.01 C0.91 94.68, -0.78 190.27, -1.64 297.3 M-0.4 0.37 C-2.07 102.9, -2.56 203.97, -0.32 299.06" stroke="#000000" stroke-width="1" fill="none"></path></g></g><g stroke-linecap="round"><g transform="translate(61.8203125 144.25) rotate(0 21.351290127262473 0.49929441045969725)"><path d="M-0.74 1.69 C12.63 1.19, 21.38 2.55, 43.44 0.9 M0.17 -0.78 C10.57 0.8, 22.15 0.4, 43.18 1.77" stroke="#000000" stroke-width="1" fill="none"></path></g></g><g stroke-linecap="round" transform="translate(117.275390625 130.794921875) rotate(0 228.4609375 16.433593749999986)"><path d="M0.22 -0.24 C178.41 -2.12, 356.29 -0.97, 457.45 0.2 M-0.16 -0.27 C100.68 -1.25, 200.49 -0.99, 456.84 0.44 M456.66 0.82 C456.39 11.83, 456.05 22.64, 458.25 32.31 M455.93 -0.47 C456.75 10.26, 457.07 22.15, 456.18 32.28 M457.43 33.53 C298.85 31.1, 138.81 31.7, 0.18 32.25 M457.04 33.11 C274.27 34.37, 91.94 33.88, -0.29 33.02 M-1.15 32.74 C-2.29 23.93, 1.61 16.42, -0.71 1.11 M-0.71 32.13 C-0.41 24.02, -0.15 15.92, -0.69 -0.1" stroke="#000000" stroke-width="1" fill="none"></path></g><g stroke-linecap="round"><g transform="translate(125.4765625 175.92578125) rotate(0 0.07193978495504894 47.0052056312561)"><path d="M-0.61 -1.37 C0.13 22.9, 0.64 40.26, 1.06 93.4 M0.77 -0.46 C-0.13 31.91, -1.44 65.11, -0.71 95.38" stroke="#000000" stroke-width="1" fill="none"></path></g></g><g stroke-linecap="round"><g transform="translate(129.9921875 218.00390625) rotate(0 25.149429753422737 0.08257131278514862)"><path d="M1.2 1.62 C16.8 -2.45, 34.09 0.45, 49.68 -0.59 M0.62 0.5 C13.61 0.12, 29.42 -1.01, 49.65 -1.45" stroke="#000000" stroke-width="1" fill="none"></path></g></g><g stroke-linecap="round" transform="translate(188.62109375 196.12109375) rotate(0 96.935546875 16.6875)"><path d="M0.26 -1.61 C75.1 -2.16, 148.6 -1.41, 192.18 0.44 M0.96 -0.17 C72.82 0.44, 143.99 -0.18, 194.21 -0.77 M195.63 0.54 C193.96 14.52, 192.27 26.41, 193.99 34.65 M194.25 0.63 C193.88 8.72, 194.55 17.52, 194.66 32.88 M194.09 35.05 C141.88 34.46, 89.75 34.72, -1.43 31.51 M193.13 33.06 C138.61 33.43, 83.59 33.79, 0.56 32.45 M-0.61 35.37 C1.51 22.44, 0.57 7.04, -1.89 1.52 M-0.69 33.94 C0.91 21.27, 0.87 8.09, -0.48 -0.16" stroke="#000000" stroke-width="1" fill="none"></path></g><g stroke-linecap="round"><g transform="translate(129.220837274695 268.3098498600637) rotate(0 129.04308462694533 2.1758701962720295)"><path d="M0.54 -1.28 C101.5 1.95, 207.36 3.09, 256.91 4.43 M0.72 0.29 C91.53 0.35, 184.23 2.93, 257.55 5.63" stroke="#000000" stroke-width="1" fill="none"></path></g></g><g stroke-linecap="round" transform="translate(389.14453125 249.30078125) rotate(0 92.9609375 22.212890625)"><path d="M1.17 0.94 C46.21 -1.38, 90.15 -0.16, 187.53 -1.34 M-0.87 0.72 C59.81 -0.53, 119.54 -0.92, 186.83 -0.38 M185.11 0.95 C187.14 14.49, 187.05 30.9, 187.07 46.14 M185.52 -0.51 C186.92 12.97, 186.65 26.09, 185.23 43.71 M187.82 42.43 C147.1 45.03, 107.27 41.32, -1.1 43.48 M186.27 43.97 C115.51 44.56, 44.38 42.98, 0.78 45.25 M-2 43.36 C1.23 28.17, -0.84 13.79, 1.9 0.2 M0.69 44.97 C-0.41 32.11, -0.18 18.83, 0.98 -0.96" stroke="#000000" stroke-width="1" fill="none"></path></g><g stroke-linecap="round"><g transform="translate(58.73828125 378.9296875) rotate(0 264.71927741765984 0.3943978772963419)"><path d="M0.14 0.56 C202.55 -0.78, 403.77 -0.33, 528.65 -0.22 M0.08 0.4 C136.55 1.44, 273.42 1.4, 529.35 0.41" stroke="#000000" stroke-width="1" fill="none"></path></g></g><g stroke-linecap="round" transform="translate(602.734375 359.84375) rotate(0 313.9453125 17.0625)"><path d="M0.27 -0.28 C210.81 3.18, 422.55 2.48, 628.67 -0.36 M0.36 0.36 C146.37 2.35, 292.65 2.35, 628.01 0.39 M627 -1.98 C629.33 10.7, 628.41 21.81, 627.35 35.29 M628.45 -0.54 C628.53 13.01, 627.86 27.78, 627.51 34.58 M628.44 34.13 C486.45 32.45, 344.28 33.11, -0.38 34.91 M628.24 33.84 C439.94 32.32, 251.74 32.46, -0.14 33.93 M-0.71 32.56 C0.73 25.58, -1.05 19.54, -0.79 -1.03 M-1 34.07 C0.11 24.9, -0.31 17.29, 0.72 -0.94" stroke="#000000" stroke-width="1" fill="none"></path></g><g stroke-linecap="round"><g transform="translate(613.62109375 409.0390625) rotate(0 0.9154715243484475 63.16110822558403)"><path d="M1.7 -0.88 C2.72 23.34, 2.84 49.2, 1.34 127.2 M0.14 -0.57 C-1.16 33.04, -1.05 65.88, 2.11 126.12" stroke="#000000" stroke-width="1" fill="none"></path></g></g><g stroke-linecap="round" transform="translate(626.34375 422.484375) rotate(0 12.953125 0.5625)"><path d="M1.57 -0.81 C5.66 -1.88, 15.91 -1.14, 26.59 -0.42 M0.65 -0.03 C9.29 0.22, 18.27 -0.23, 26.86 -0.31 M25.81 0.05 C25.8 0.5, 25.99 0.85, 25.87 1.24 M25.95 -0.03 C25.88 0.35, 25.85 0.81, 25.86 1.14 M25.06 -0.37 C17.94 1.41, 6.17 2.41, 1.71 0.66 M25.36 1.79 C15.04 0.2, 5.38 1.17, 0.67 0.82 M0.04 1.21 C0.03 0.72, 0.01 0.34, 0.06 -0.01 M0.04 1.1 C-0.03 0.82, 0.04 0.65, 0 0" stroke="#000000" stroke-width="1" fill="none"></path></g><g stroke-linecap="round" transform="translate(662.34765625 412.07421875) rotate(0 181.716796875 14.41015625)"><path d="M0.55 -0.49 C109.25 -0.52, 216.66 -0.81, 364.46 -1.07 M0.49 0.41 C124.21 -1.64, 249.09 -2.3, 363.28 0.53 M361.58 1.43 C361.57 7.8, 364.69 15.28, 361.71 27.97 M363.15 0.75 C364.52 6.26, 364.55 12.71, 362.97 28.27 M362.9 29.03 C231.15 26.61, 98.35 26.99, 0.24 29.3 M363.5 29.35 C227.49 29.42, 90.38 29.12, -0.03 29.28 M1.3 29.91 C0.06 21.51, 0.62 15.78, 1.66 0.97 M-0.57 29.77 C1.23 18.03, -0.24 8.37, -0.17 0.85" stroke="#000000" stroke-width="1" fill="none"></path></g><g stroke-linecap="round"><g transform="translate(622.90625 475.51171875) rotate(0 17.42635850608349 -0.1802175349317281)"><path d="M-0.93 -1.1 C10.99 -1.64, 17.73 -0.98, 35.27 0.92 M0.19 0.38 C10.17 0.14, 19.12 -0.11, 35.78 0.13" stroke="#000000" stroke-width="1" fill="none"></path></g></g><g stroke-linecap="round" transform="translate(668.96875 464.34765625) rotate(0 277.65234375 13.212890625)"><path d="M0.43 -0.04 C181.24 -2.3, 363.69 -1.29, 554.98 -0.46 M-0.02 0.03 C116.62 -0.83, 233.39 -1.01, 555.5 -0.34 M557.28 -1.48 C554.19 8.11, 554.82 19.37, 556.98 24.59 M555.6 -0.57 C555.21 8.43, 556.36 19.05, 555.24 26.18 M554.54 26.69 C352.05 29.04, 150.26 29.3, 0.48 27.19 M555.69 26.55 C417.83 27.01, 280.92 26.77, -0.2 26.42 M-1.68 25.85 C-1.87 19.33, -1.5 13.85, -0.64 1.51 M0.04 27.25 C0.41 20.81, 0.16 12.88, -0.57 0.28" stroke="#000000" stroke-width="1" fill="none"></path></g><g stroke-linecap="round" transform="translate(670.9765625 515.7890625) rotate(0 177.642578125 16.490234375)"><path d="M0.78 1.23 C125.75 -2.24, 253.24 -0.8, 355.68 -1.04 M-0.33 -0.02 C99.17 1.67, 199.06 1.3, 355.1 -0.62 M354.64 1.51 C354 9.95, 354.6 16.55, 356.94 34.26 M354.71 0.28 C354.73 12.67, 355.41 26.45, 356.13 33.28 M355.85 33.06 C263.26 32.22, 169.87 31.33, -0.35 33.98 M355.9 33.46 C246.29 35.18, 137.4 34.54, -0.59 32.72 M-0.27 31.78 C1.95 20.6, -0.62 7.84, -1.37 0.55 M-0.83 33 C0.25 24.83, -0.35 17.5, 0.67 0.93" stroke="#000000" stroke-width="1" fill="none"></path></g><g stroke-linecap="round"><g transform="translate(624.546875 534.66796875) rotate(0 19.08158378303051 0.37297816574573517)"><path d="M-1.55 -1.79 C14.03 -1.15, 28.4 1.04, 37.82 0.43 M-0.4 -0.65 C7.94 0.53, 16.52 0.98, 39.71 2.53" stroke="#000000" stroke-width="1" fill="none"></path></g></g><g transform="translate(202.79296875 198.5234375) rotate(0 80 10)"><text x="0" y="16" font-family="Cascadia, Segoe UI Emoji" font-size="16px" fill="#000000" text-anchor="start" style="white-space: pre;" direction="ltr">select * from ...</text></g><g transform="translate(406.79296875 257.5234375) rotate(0 85 10)"><text x="0" y="16" font-family="Cascadia, Segoe UI Emoji" font-size="16px" fill="#000000" text-anchor="start" style="white-space: pre;" direction="ltr">HGET account:42:..</text></g><g transform="translate(681.79296875 416.5234375) rotate(0 80 10)"><text x="0" y="16" font-family="Cascadia, Segoe UI Emoji" font-size="16px" fill="#000000" text-anchor="start" style="white-space: pre;" direction="ltr">select * from ...</text></g><g transform="translate(685.79296875 466.5234375) rotate(0 80 10)"><text x="0" y="16" font-family="Cascadia, Segoe UI Emoji" font-size="16px" fill="#000000" text-anchor="start" style="white-space: pre;" direction="ltr">select * from ...</text></g><g transform="translate(683.79296875 520.5234375) rotate(0 80 10)"><text x="0" y="16" font-family="Cascadia, Segoe UI Emoji" font-size="16px" fill="#000000" text-anchor="start" style="white-space: pre;" direction="ltr">select * from ...</text></g><g transform="translate(90.60546875 51.9921875) rotate(0 99 10)"><text x="0" y="16" font-family="Cascadia, Segoe UI Emoji" font-size="16px" fill="#000000" text-anchor="start" style="white-space: pre;" direction="ltr">GET /api/v1/dashboard</text></g><g transform="translate(649.06640625 366.33203125) rotate(0 99 10)"><text x="0" y="16" font-family="Cascadia, Segoe UI Emoji" font-size="16px" fill="#000000" text-anchor="start" style="white-space: pre;" direction="ltr">GET /api/transactions</text></g><g stroke-opacity="0.1" fill-opacity="0.1" stroke-linecap="round" transform="translate(588.11328125 343.70703125) rotate(0 333.90625 131.677734375)"><path d="M1.07 -0.14 L669.75 -1.59 L668.73 264.26 L0.36 264.69" stroke="none" stroke-width="0" fill="#40c057"></path><path d="M0.47 -0.71 C144.71 -0.42, 290.37 -0.3, 668.01 0.55 M0.33 -0.09 C203.02 -2.02, 406.59 -1.82, 667.89 -0.08 M667.73 1.41 C669.18 84.11, 671.13 167.02, 667.23 262.83 M667.61 0.6 C665.44 81.5, 665.91 161.57, 667.11 264 M668.42 262.99 C524.31 262.41, 379.95 261.05, 0.32 262.93 M668.16 263.41 C412.63 261.4, 157.16 261.35, 0.21 263.1 M-1.21 263.91 C0.77 209.64, 0.67 154.99, 0.18 -0.83 M0.05 263.25 C1.76 194.24, 1.16 124.37, -0.49 0.57" stroke="#000000" stroke-width="1" fill="none"></path></g><g stroke-linecap="round"><g transform="translate(41.76171875 51.921875) rotate(0 14.494590565562248 -9.14448681473732)"><path d="M1.94 -0.53 C7.74 -5.56, 14.57 -8.6, 29.14 -15.58 M-0.15 -0.48 C10.44 -6.76, 19.25 -12.11, 27.48 -17.81" stroke="#000000" stroke-width="1" fill="none"></path></g></g><g stroke-linecap="round"><g transform="translate(97.19921875 139.1328125) rotate(0 20.61747732758522 -13.120543524622917)"><path d="M1.11 -1.82 C10.95 -7.95, 23.28 -14.38, 39.09 -26.28 M-0.38 0.04 C12.61 -5.9, 24.59 -14.12, 41.62 -23.88" stroke="#000000" stroke-width="1" fill="none"></path></g></g><g stroke-linecap="round"><g transform="translate(586.94140625 366.09375) rotate(0 16.738763764500618 -11.265635684132576)"><path d="M1.33 1.83 C9.28 -5.79, 16.81 -9.46, 34.4 -22.39 M-0.92 -0.34 C7.63 -5.68, 14.53 -10.38, 33.73 -24.37" stroke="#000000" stroke-width="1" fill="none"></path></g></g></svg>