<svg xmlns="http://www.w3.org/2000/svg" width="330" height="8">
  <rect x="0" y="0" width="330" height="8" fill="#fff" fill-opacity="0.01"/>
  <polygon points="209 8 215 4 209 0"/>
  <polygon points="198 8 204 4 198 0"/>
  <polygon points="187 8 193 4 187 0"/>
  <polygon points="176 8 182 4 176 0"/>
  <polygon points="165 8 171 4 165 0"/>
  <polygon points="154 8 160 4 154 0"/>
  <polygon points="143 8 149 4 143 0"/>
  <polygon points="132 8 138 4 132 0"/>
  <polygon points="121 8 127 4 121 0"/>
  <polygon points="110 8 116 4 110 0"/>
</svg>
