<svg xmlns="http://www.w3.org/2000/svg" xmlns:xlink="http://www.w3.org/1999/xlink" width="462" height="462" viewBox="0 0 462 462">
  <g style="transform: scale(1.25, 1.25) translate(-51px, -51px)">
    <svg xmlns="http://www.w3.org/2000/svg" xmlns:xlink="http://www.w3.org/1999/xlink" viewBox="0 0 80.724 93.507" x="167.423" y="214.904" width="126.825" height="146.908">
      <path d="M27.065 7.764L0 23.389V35.51l27.065-15.626L54.129 35.51V23.389zM53.66 85.845L26.595 70.22V58.101L53.66 73.726l27.064-15.625V70.22zM0 38.765l27.065-15.626 10.495 6.06-27.064 15.626v31.252L0 70.017zm67.445-23.14L40.38 0 29.884 6.06l27.064 15.625v31.252l10.497-6.06zM13.372 77.88l.001-31.251 10.496-6.06v31.252l27.064 15.625-10.496 6.061zm67.352-23.035V23.593l-10.496-6.06v31.251L43.164 64.411l10.496 6.061z" class="fill c1"/>
    </svg>
    <svg xmlns="http://www.w3.org/2000/svg" xmlns:xlink="http://www.w3.org/1999/xlink" x="232.864" y="100.716" viewBox="0 0 80.724 93.507" width="126.825" height="146.908">
      <path d="M27.065 7.764L0 23.389V35.51l27.065-15.626L54.129 35.51V23.389zM53.66 85.845L26.595 70.22V58.101L53.66 73.726l27.064-15.625V70.22zM0 38.765l27.065-15.626 10.495 6.06-27.064 15.626v31.252L0 70.017zm67.445-23.14L40.38 0 29.884 6.06l27.064 15.625v31.252l10.497-6.06zM13.372 77.88l.001-31.251 10.496-6.06v31.252l27.064 15.625-10.496 6.061zm67.352-23.035V23.593l-10.496-6.06v31.251L43.164 64.411l10.496 6.061z" class="fill c1"/>
    </svg>
    <svg xmlns="http://www.w3.org/2000/svg" viewBox="0 0 80.724 93.507" x="101.982" y="101.384" width="126.825" height="146.908">
      <path d="M27.065 7.764L0 23.389V35.51l27.065-15.626L54.129 35.51V23.389zM53.66 85.845L26.595 70.22V58.101L53.66 73.726l27.064-15.625V70.22zM0 38.765l27.065-15.626 10.495 6.06-27.064 15.626v31.252L0 70.017zm67.445-23.14L40.38 0 29.884 6.06l27.064 15.625v31.252l10.497-6.06zM13.372 77.88l.001-31.251 10.496-6.06v31.252l27.064 15.625-10.496 6.061zm67.352-23.035V23.593l-10.496-6.06v31.251L43.164 64.411l10.496 6.061z" class="fill c1"/>
    </svg>
  </g>
</svg>
