<svg xmlns="http://www.w3.org/2000/svg" width="300" height="200" viewBox="130,-180,100,295" style="font: 10px sans-serif; user-select: none;">
  <g fill="none" stroke="#ac4142" stroke-opacity="0.4" stroke-width="1.5">
    <path d="M0,0C49.666666666666664,0,49.666666666666664,-105,99.33333333333333,-105">
    </path>
    <path d="M0,0C49.666666666666664,0,49.666666666666664,-95,99.33333333333333,-95">
    </path>
    <path d="M0,0C49.666666666666664,0,49.666666666666664,-50,99.33333333333333,-50">
    </path>
    <path d="M0,0C49.666666666666664,0,49.666666666666664,-5,99.33333333333333,-5">
    </path>
    <path d="M0,0C49.666666666666664,0,49.666666666666664,30,99.33333333333333,30">
    </path>
    <path d="M0,0C49.666666666666664,0,49.666666666666664,65,99.33333333333333,65">
    </path>
    <path d="M0,0C49.666666666666664,0,49.666666666666664,75,99.33333333333333,75">
    </path>
    <path d="M0,0C49.666666666666664,0,49.666666666666664,85,99.33333333333333,85">
    </path>
    <path d="M0,0C49.666666666666664,0,49.666666666666664,95,99.33333333333333,95">
    </path>
    <path d="M0,0C49.666666666666664,0,49.666666666666664,105,99.33333333333333,105">
    </path>
    <path d="M99.33333333333333,-95C149,-95,149,-150,198.66666666666666,-150">
    </path>
    <path d="M99.33333333333333,-95C149,-95,149,-140,198.66666666666666,-140">
    </path>
    <path d="M99.33333333333333,-95C149,-95,149,-130,198.66666666666666,-130">
    </path>
    <path d="M99.33333333333333,-95C149,-95,149,-120,198.66666666666666,-120">
    </path>
    <path d="M99.33333333333333,-95C149,-95,149,-110,198.66666666666666,-110">
    </path>
    <path d="M99.33333333333333,-95C149,-95,149,-100,198.66666666666666,-100">
    </path>
    <path d="M99.33333333333333,-95C149,-95,149,-90,198.66666666666666,-90">
    </path>
    <path d="M99.33333333333333,-95C149,-95,149,-80,198.66666666666666,-80">
    </path>
    <path d="M99.33333333333333,-95C149,-95,149,-70,198.66666666666666,-70">
    </path>
    <path d="M99.33333333333333,-95C149,-95,149,-60,198.66666666666666,-60">
    </path>
    <path d="M99.33333333333333,-95C149,-95,149,-50,198.66666666666666,-50">
    </path>
    <path d="M99.33333333333333,-95C149,-95,149,-40,198.66666666666666,-40">
    </path>
    <path d="M99.33333333333333,-5C149,-5,149,-20,198.66666666666666,-20">
    </path>
    <path d="M99.33333333333333,-5C149,-5,149,-10,198.66666666666666,-10">
    </path>
    <path d="M99.33333333333333,-5C149,-5,149,0,198.66666666666666,0">
    </path>
    <path d="M99.33333333333333,-5C149,-5,149,10,198.66666666666666,10">
    </path>
    <path d="M99.33333333333333,65C149,65,149,30,198.66666666666666,30">
    </path>
    <path d="M99.33333333333333,65C149,65,149,40,198.66666666666666,40">
    </path>
    <path d="M99.33333333333333,65C149,65,149,50,198.66666666666666,50">
    </path>
    <path d="M99.33333333333333,65C149,65,149,60,198.66666666666666,60">
    </path>
    <path d="M99.33333333333333,65C149,65,149,70,198.66666666666666,70">
    </path>
    <path d="M99.33333333333333,65C149,65,149,80,198.66666666666666,80">
    </path>
    <path d="M99.33333333333333,65C149,65,149,90,198.66666666666666,90">
    </path>
<path d="M99.33333333333333,65C149,65,149,100,198.66666666666666,100"></path><path d="M198.66666666666666,-130C248.33333333333331,-130,248.33333333333331,-170,298,-170"></path><path d="M198.66666666666666,-130C248.33333333333331,-130,248.33333333333331,-160,298,-160"></path><path d="M198.66666666666666,-130C248.33333333333331,-130,248.33333333333331,-150,298,-150"></path><path d="M198.66666666666666,-130C248.33333333333331,-130,248.33333333333331,-140,298,-140"></path><path d="M198.66666666666666,-130C248.33333333333331,-130,248.33333333333331,-130,298,-130"></path><path d="M198.66666666666666,-130C248.33333333333331,-130,248.33333333333331,-120,298,-120"></path><path d="M198.66666666666666,-130C248.33333333333331,-130,248.33333333333331,-110,298,-110"></path><path d="M198.66666666666666,-130C248.33333333333331,-130,248.33333333333331,-100,298,-100"></path><path d="M198.66666666666666,-130C248.33333333333331,-130,248.33333333333331,-90,298,-90"></path></g><g cursor="pointer" pointer-events="all"><g transform="translate(298, -90)" fill-opacity="1" stroke-opacity="1"><circle r="2.5" fill="#ac4142" stroke-width="10"></circle></g><g transform="translate(298, -100)" fill-opacity="1" stroke-opacity="1"><circle r="2.5" fill="#ac4142" stroke-width="10"></circle></g><g transform="translate(298, -110)" fill-opacity="1" stroke-opacity="1"><circle r="2.5" fill="#ac4142" stroke-width="10"></circle></g><g transform="translate(298, -120)" fill-opacity="1" stroke-opacity="1"><circle r="2.5" fill="#ac4142" stroke-width="10"></circle></g><g transform="translate(298, -130)" fill-opacity="1" stroke-opacity="1"><circle r="2.5" fill="#ac4142" stroke-width="10"></circle></g><g transform="translate(298, -140)" fill-opacity="1" stroke-opacity="1"><circle r="2.5" fill="#ac4142" stroke-width="10"></circle></g><g transform="translate(298, -150)" fill-opacity="1" stroke-opacity="1"><circle r="2.5" fill="#ac4142" stroke-width="10"></circle></g><g transform="translate(298, -160)" fill-opacity="1" stroke-opacity="1"><circle r="2.5" fill="#ac4142" stroke-width="10"></circle></g><g transform="translate(298, -170)" fill-opacity="1" stroke-opacity="1"><circle r="2.5" fill="#ac4142" stroke-width="10"></circle></g><g transform="translate(198.6666717529297, 100)" fill-opacity="1" stroke-opacity="1"><circle r="2.5" fill="#ac4142" stroke-width="10"></circle></g><g transform="translate(198.6666717529297, 90)" fill-opacity="1" stroke-opacity="1"><circle r="2.5" fill="#ac4142" stroke-width="10"></circle></g><g transform="translate(198.6666717529297, 80)" fill-opacity="1" stroke-opacity="1"><circle r="2.5" fill="#ac4142" stroke-width="10"></circle></g><g transform="translate(198.6666717529297, 70)" fill-opacity="1" stroke-opacity="1"><circle r="2.5" fill="#ac4142" stroke-width="10"></circle></g><g transform="translate(198.6666717529297, 60)" fill-opacity="1" stroke-opacity="1"><circle r="2.5" fill="#ac4142" stroke-width="10"></circle></g><g transform="translate(198.6666717529297, 50)" fill-opacity="1" stroke-opacity="1"><circle r="2.5" fill="#ac4142" stroke-width="10"></circle></g><g transform="translate(198.6666717529297, 40)" fill-opacity="1" stroke-opacity="1"><circle r="2.5" fill="#ac4142" stroke-width="10"></circle></g><g transform="translate(198.6666717529297, 30)" fill-opacity="1" stroke-opacity="1"><circle r="2.5" fill="#ac4142" stroke-width="10"></circle></g><g transform="translate(198.6666717529297, 10)" fill-opacity="1" stroke-opacity="1"><circle r="2.5" fill="#ac4142" stroke-width="10"></circle></g><g transform="translate(198.6666717529297, 0)" fill-opacity="1" stroke-opacity="1"><circle r="2.5" fill="#ac4142" stroke-width="10"></circle></g><g transform="translate(198.6666717529297, -10)" fill-opacity="1" stroke-opacity="1"><circle r="2.5" fill="#ac4142" stroke-width="10"></circle></g><g transform="translate(198.6666717529297, -20)" fill-opacity="1" stroke-opacity="1"><circle r="2.5" fill="#ac4142" stroke-width="10"></circle></g><g transform="translate(198.6666717529297, -40)" fill-opacity="1" stroke-opacity="1"><circle r="2.5" fill="#ac4142" stroke-width="10"></circle></g><g transform="translate(198.6666717529297, -50)" fill-opacity="1" stroke-opacity="1"><circle r="2.5" fill="#ac4142" stroke-width="10"></circle></g><g transform="translate(198.6666717529297, -60)" fill-opacity="1" stroke-opacity="1"><circle r="2.5" fill="#ac4142" stroke-width="10"></circle></g><g transform="translate(198.6666717529297, -70)" fill-opacity="1" stroke-opacity="1"><circle r="2.5" fill="#ac4142" stroke-width="10"></circle></g><g transform="translate(198.6666717529297, -80)" fill-opacity="1" stroke-opacity="1"><circle r="2.5" fill="#ac4142" stroke-width="10"></circle></g><g transform="translate(198.6666717529297, -90)" fill-opacity="1" stroke-opacity="1"><circle r="2.5" fill="#ac4142" stroke-width="10"></circle></g><g transform="translate(198.6666717529297, -100)" fill-opacity="1" stroke-opacity="1"><circle r="2.5" fill="#ac4142" stroke-width="10"></circle></g><g transform="translate(198.6666717529297, -110)" fill-opacity="1" stroke-opacity="1"><circle r="2.5" fill="#ac4142" stroke-width="10"></circle></g><g transform="translate(198.6666717529297, -120)" fill-opacity="1" stroke-opacity="1"><circle r="2.5" fill="#ac4142" stroke-width="10"></circle></g><g transform="translate(198.6666717529297, -130)" fill-opacity="1" stroke-opacity="1"><circle r="2.5" fill="#ac4142" stroke-width="10"></circle></g><g transform="translate(198.6666717529297, -140)" fill-opacity="1" stroke-opacity="1"><circle r="2.5" fill="#ac4142" stroke-width="10"></circle></g><g transform="translate(198.6666717529297, -150)" fill-opacity="1" stroke-opacity="1"><circle r="2.5" fill="#ac4142" stroke-width="10"></circle></g><g transform="translate(99.33333587646484, 105)" fill-opacity="1" stroke-opacity="1"><circle r="2.5" fill="#ac4142" stroke-width="10"></circle></g><g transform="translate(99.33333587646484, 95)" fill-opacity="1" stroke-opacity="1"><circle r="2.5" fill="#ac4142" stroke-width="10"></circle></g><g transform="translate(99.33333587646484, 85)" fill-opacity="1" stroke-opacity="1"><circle r="2.5" fill="#ac4142" stroke-width="10"></circle></g><g transform="translate(99.33333587646484, 75)" fill-opacity="1" stroke-opacity="1"><circle r="2.5" fill="#ac4142" stroke-width="10"></circle></g><g transform="translate(99.33333587646484, 65)" fill-opacity="1" stroke-opacity="1"><circle r="2.5" fill="#ac4142" stroke-width="10"></circle></g><g transform="translate(99.33333587646484, 30)" fill-opacity="1" stroke-opacity="1"><circle r="2.5" fill="#ac4142" stroke-width="10"></circle></g><g transform="translate(99.33333587646484, -5)" fill-opacity="1" stroke-opacity="1"><circle r="2.5" fill="#ac4142" stroke-width="10"></circle></g><g transform="translate(99.33333587646484, -50)" fill-opacity="1" stroke-opacity="1"><circle r="2.5" fill="#ac4142" stroke-width="10"></circle></g><g transform="translate(99.33333587646484, -95)" fill-opacity="1" stroke-opacity="1"><circle r="2.5" fill="#ac4142" stroke-width="10"></circle></g><g transform="translate(99.33333587646484, -105)" fill-opacity="1" stroke-opacity="1"><circle r="2.5" fill="#ac4142" stroke-width="10"></circle></g><g transform="" fill-opacity="1" stroke-opacity="1"><circle r="2.5" fill="#ac4142" stroke-width="10"></circle></g></g></svg>
